<svg xmlns="http://www.w3.org/2000/svg" width="258.993" height="301.092" viewBox="0 0 258.993 301.092">
  <path id="Exclusion_6" data-name="Exclusion 6" d="M260,147.889H229.527a198.042,198.042,0,0,0-4.853-44.744c-3.511-15.09-8.838-28.355-15.835-39.428-7.676-12.147-17.343-21.6-28.732-28.08a78.994,78.994,0,0,0-19.8-7.9,97.351,97.351,0,0,0-23.742-2.8c-2.651,0-5.388.094-8.136.281a134.6,134.6,0,0,0-25.778,4.153A100.565,100.565,0,0,0,81.365,37.69a86.162,86.162,0,0,0-17.118,12,87.074,87.074,0,0,0-13.276,15.2,101.481,101.481,0,0,0-9.759,17.9,129.019,129.019,0,0,0-6.568,20.126,193,193,0,0,0-4.864,44.968H0c0-21.208,2.677-41.066,7.956-59.025,5.429-18.469,13.535-34.647,24.093-48.085A112.634,112.634,0,0,1,72.618,8.251,123.677,123.677,0,0,1,99.186-.736,152.532,152.532,0,0,1,130-4.1c.606-.007,1.219-.01,1.822-.01A144.06,144.06,0,0,1,162.2-1a117.982,117.982,0,0,1,26.2,8.915,110.792,110.792,0,0,1,40,32.712c10.4,13.519,18.392,29.783,23.756,48.342A212.433,212.433,0,0,1,260,147.888Z" transform="translate(129.346 1.993) rotate(61)" fill="#55aa79"/>
</svg>
