<svg xmlns="http://www.w3.org/2000/svg" width="228.207" height="130.378" viewBox="0 0 228.207 130.378">
  <path id="Exclusion_3" data-name="Exclusion 3" d="M228.207,130.37H201.46a180.47,180.47,0,0,0-4.119-39.746c-2.989-13.171-7.578-24.659-13.641-34.144a74.341,74.341,0,0,0-10.992-13.519,66.071,66.071,0,0,0-14.094-10.376,70.455,70.455,0,0,0-17.437-6.652,90.484,90.484,0,0,0-21.02-2.346c-.821,0-1.659.01-2.491.029-15.172.345-28.924,3.54-40.873,9.494a81.518,81.518,0,0,0-28.51,23.645,102.524,102.524,0,0,0-16.7,33.764,141.793,141.793,0,0,0-5.444,39.851H0A175.925,175.925,0,0,1,6.983,79.74C11.748,63.9,18.863,50.021,28.131,38.495a98.489,98.489,0,0,1,35.608-27.9A110.294,110.294,0,0,1,87.058,2.887,136.867,136.867,0,0,1,114.1,0c.53-.006,1.068-.009,1.6-.009,18.4,0,35.1,3.471,49.659,10.316a96.819,96.819,0,0,1,35.109,28.058c9.128,11.6,16.143,25.547,20.851,41.465a178.336,178.336,0,0,1,6.885,50.537Z" transform="translate(228.207 130.37) rotate(180)" fill="#55aa79"/>
</svg>
