<svg xmlns="http://www.w3.org/2000/svg" width="562.453" height="446.001" viewBox="0 0 562.453 446.001">
  <g id="Group_256" data-name="Group 256" transform="translate(-691 -233.999)">
    <g id="Group_111" data-name="Group 111" transform="translate(691.001 252.234)">
      <ellipse id="Ellipse_25" data-name="Ellipse 25" cx="85.86" cy="87.212" rx="85.86" ry="87.212" transform="translate(146.03 148.748)" fill="#fe7760"/>
      <rect id="Rectangle_250" data-name="Rectangle 250" width="168" height="68.381" rx="34.191" transform="translate(276 337.865)" fill="#fe7760"/>
      <path id="Path_118" data-name="Path 118" d="M216.988,142c0-64.469-10.838-142.172-104.248-142C58.2,0,12.7,40.013,2.142,93.355c-1.474,7.45,8.063,29.86,8.063,37.919" transform="translate(448.444 21.011) rotate(62)" fill="#fdb8b7"/>
      <g id="Rectangle_246" data-name="Rectangle 246" transform="translate(0 -18.236)" fill="#9ab7ff" stroke="#9ab7ff" stroke-width="7">
        <rect width="260" height="140" rx="70" stroke="none"/>
        <rect x="3.5" y="3.5" width="253" height="133" rx="66.5" fill="none"/>
      </g>
      <rect id="Rectangle_243" data-name="Rectangle 243" width="168" height="184" rx="80" transform="translate(-0.001 243.765)" fill="#55aa79"/>
    </g>
    <path id="Exclusion_26" data-name="Exclusion 26" d="M27.889,164h0a130.389,130.389,0,0,1-14.629-28.051,100.235,100.235,0,0,1-5.989-26.981,88.434,88.434,0,0,1,1.7-25.317,89.67,89.67,0,0,1,8.451-23.058A101.006,101.006,0,0,1,35.849,36.039,118.529,118.529,0,0,1,61.377,17,132.865,132.865,0,0,1,92.211,4.614,139.757,139.757,0,0,1,126.545.008C127.137,0,127.734,0,128.317,0c20.389,0,38.908,3.4,55.041,10.1a106.119,106.119,0,0,1,38.914,27.482A115.743,115.743,0,0,1,245.383,78.2a155.77,155.77,0,0,1,7.632,49.5l-86.769,13.992,58.642-9.482c0-16.58-2.061-31.715-6.126-44.984-4.075-13.3-10.178-24.77-18.138-34.082a78.729,78.729,0,0,0-29.791-21.6c-11.986-5.011-25.808-7.552-41.084-7.552-.977,0-1.975.01-2.966.031A112.081,112.081,0,0,0,104.111,27a115.187,115.187,0,0,0-22.372,7.75A100.935,100.935,0,0,0,61.533,47.2a82.3,82.3,0,0,0-16.18,17.085,43.112,43.112,0,0,0-5.756,9.8,52.743,52.743,0,0,0-3.259,11.063,84.648,84.648,0,0,0-.427,24.66,164.309,164.309,0,0,0,5.359,25.951c2.163,7.614,4.892,15.7,8.343,24.734l116.633-18.808L49.631,160.544h0l-.005-.014-.013-.033L27.89,164Z" transform="matrix(0.276, 0.961, -0.961, 0.276, 1183.713, 264.257)" fill="#ffca0f"/>
  </g>
</svg>
