<svg xmlns="http://www.w3.org/2000/svg" width="476" height="329.996" viewBox="0 0 476 329.996">
  <g id="Group_111" data-name="Group 111" transform="translate(-581.999 -3363)">
    <ellipse id="Ellipse_25" data-name="Ellipse 25" cx="70.309" cy="71.416" rx="70.309" ry="71.416" transform="translate(701.513 3484.641)" fill="#fe7760"/>
    <rect id="Rectangle_250" data-name="Rectangle 250" width="186" height="55.996" rx="27.998" transform="translate(770.875 3636.999)" fill="#fe7760"/>
    <path id="Path_118" data-name="Path 118" d="M174,88c0-48.6-38.951-88-87-88C44.957,0,9.88,30.165,1.745,70.378A89.1,89.1,0,0,0,0,88" transform="translate(938.002 3390.999) rotate(54)" fill="#fdb8b7"/>
    <path id="Exclusion_11" data-name="Exclusion 11" d="M210,106H185.387A130.339,130.339,0,0,0,181.6,73.685a81.761,81.761,0,0,0-12.553-27.76,62.628,62.628,0,0,0-10.115-10.991,60.988,60.988,0,0,0-12.97-8.436,70.271,70.271,0,0,0-16.046-5.408,93.786,93.786,0,0,0-19.343-1.908c-.756,0-1.527.008-2.293.023-13.961.281-26.616,2.878-37.612,7.719A73.718,73.718,0,0,0,44.43,46.149,79.968,79.968,0,0,0,29.063,73.6,102.79,102.79,0,0,0,24.054,106H0A127.566,127.566,0,0,1,6.426,64.837,94.719,94.719,0,0,1,25.886,31.3,89.914,89.914,0,0,1,58.653,8.621,111.1,111.1,0,0,1,80.112,2.354,141.942,141.942,0,0,1,105,.007c.488,0,.983-.007,1.472-.007,16.928,0,32.3,2.822,45.7,8.387A88.1,88.1,0,0,1,184.476,31.2a96.072,96.072,0,0,1,19.187,33.712A129.283,129.283,0,0,1,210,106Z" transform="translate(934.564 3363) rotate(54)" fill="#ffca0f"/>
    <g id="Rectangle_246" data-name="Rectangle 246" transform="translate(581.999 3387.207)" fill="#55aa79" stroke="#55aa79" stroke-width="7">
      <rect width="208" height="76" rx="38" stroke="none"/>
      <rect x="3.5" y="3.5" width="201" height="69" rx="34.5" fill="none"/>
    </g>
    <rect id="Rectangle_243" data-name="Rectangle 243" width="136" height="122" rx="61" transform="translate(582 3566.576)" fill="#fdb8b7"/>
  </g>
</svg>
