<svg xmlns="http://www.w3.org/2000/svg" width="416" height="736" viewBox="0 0 416 736">
  <g id="Group_336" data-name="Group 336" transform="translate(2)">
    <g id="Group_259" data-name="Group 259" transform="translate(-927.258)">
      <rect id="Rectangle_221" data-name="Rectangle 221" width="415" height="735.593" transform="translate(926.258)" fill="#13182b"/>
      <rect id="Rectangle_226" data-name="Rectangle 226" width="122" height="114" rx="57" transform="translate(925.258 621.593)" fill="#55aa79"/>
      <path id="Path_67" data-name="Path 67" d="M141.406,174.032V0H0Z" transform="translate(1167.226 736) rotate(-90)" fill="#ffca0f"/>
      <path id="Exclusion_3" data-name="Exclusion 3" d="M22.136,110.414h0v-.054l109.357-.272ZM0,110.414H0A148.988,148.988,0,0,1,5.914,67.537,102.357,102.357,0,0,1,23.823,32.608,83.409,83.409,0,0,1,53.979,8.98C66.453,3.2,80.8.178,96.632.007,97.086,0,97.547,0,98,0a109.132,109.132,0,0,1,22.489,2.24,86.931,86.931,0,0,1,19.246,6.422,79.058,79.058,0,0,1,29.063,23.6c7.465,9.727,13.183,21.486,16.995,34.953a157.18,157.18,0,0,1,5.531,42.723l-59.83.149,38.328-.115a156.561,156.561,0,0,0-3.368-33.587C164,65.262,160.2,55.584,155.17,47.62a61.649,61.649,0,0,0-9.163-11.369A54.829,54.829,0,0,0,134.2,27.533a58.991,58.991,0,0,0-14.669-5.584,76.77,76.77,0,0,0-17.754-1.968c-.712,0-1.409.008-2.13.024-12.844.292-24.487,3-34.6,8.035A69.031,69.031,0,0,0,40.9,48.051,86.794,86.794,0,0,0,26.757,76.627a120.038,120.038,0,0,0-4.62,33.732Z" transform="translate(1118.704 458.281) rotate(180)" fill="#55aa79"/>
      <path id="Exclusion_4" data-name="Exclusion 4" d="M19.674,0H0A96.321,96.321,0,0,0,1.712,18.108,93.8,93.8,0,0,0,6.621,34.973a91.889,91.889,0,0,0,7.768,15.262,89.509,89.509,0,0,0,10.287,13.3A86.3,86.3,0,0,0,37.144,74.5a82.75,82.75,0,0,0,14.311,8.284,80.046,80.046,0,0,0,15.814,5.235,79.875,79.875,0,0,0,33.957,0,80.047,80.047,0,0,0,15.814-5.235A82.75,82.75,0,0,0,131.351,74.5a86.3,86.3,0,0,0,12.468-10.971,89.508,89.508,0,0,0,10.287-13.3,91.888,91.888,0,0,0,7.768-15.262,93.8,93.8,0,0,0,4.909-16.865A96.324,96.324,0,0,0,168.495,0H148.746a73.793,73.793,0,0,1-1.311,13.871,71.853,71.853,0,0,1-3.76,12.919,70.392,70.392,0,0,1-5.95,11.691,68.571,68.571,0,0,1-7.88,10.186,66.107,66.107,0,0,1-9.551,8.4,63.389,63.389,0,0,1-10.962,6.346,61.319,61.319,0,0,1-12.114,4.01,61.188,61.188,0,0,1-26.013,0,61.322,61.322,0,0,1-12.114-4.01,63.389,63.389,0,0,1-10.962-6.346,66.11,66.11,0,0,1-9.551-8.4A68.569,68.569,0,0,1,30.7,38.482a70.39,70.39,0,0,1-5.95-11.691,71.853,71.853,0,0,1-3.76-12.919A73.785,73.785,0,0,1,19.674,0Z" transform="translate(925.441 531.718)" fill="#fe7760"/>
      <path id="Exclusion_28" data-name="Exclusion 28" d="M76.891,89.874A70.78,70.78,0,0,1,21,63.545C7.457,47.117,0,24.55,0,0L161.139.025a96.324,96.324,0,0,1-1.712,18.108A93.8,93.8,0,0,1,154.518,35a91.888,91.888,0,0,1-7.768,15.262,89.508,89.508,0,0,1-10.287,13.3,86.3,86.3,0,0,1-12.468,10.971,82.753,82.753,0,0,1-14.311,8.284A80.048,80.048,0,0,1,93.87,88.049,79.773,79.773,0,0,1,76.891,89.874ZM12.317.025a72.344,72.344,0,0,0,5.072,26.791,70.393,70.393,0,0,0,5.95,11.691,68.567,68.567,0,0,0,7.88,10.186,66.109,66.109,0,0,0,9.551,8.4,63.388,63.388,0,0,0,10.962,6.346,61.039,61.039,0,0,0,50.241,0A63.388,63.388,0,0,0,112.937,57.1a66.11,66.11,0,0,0,9.551-8.4,68.571,68.571,0,0,0,7.88-10.186,70.4,70.4,0,0,0,5.95-11.691A72.345,72.345,0,0,0,141.39.025Z" transform="matrix(-0.788, 0.616, -0.616, -0.788, 1144.568, 128.721)" fill="#fe7760"/>
      <path id="Path_66" data-name="Path 66" d="M170.821,0V184H0Z" transform="translate(926.258 629.247) rotate(-90)" fill="#9ab7ff"/>
      <path id="Path_20" data-name="Path 20" d="M246.441,368.934c0-55.192-55.168-99.934-123.221-99.934C63.674,269,13.993,303.255,2.471,348.921A81.9,81.9,0,0,0,0,368.934" transform="translate(1094.816 -3.601)" fill="#ffca0f"/>
      <path id="Path_207" data-name="Path 207" d="M179.022,353.412c0-46.62-23.671-30.031-23.671-30.031v30.031" transform="translate(770.131 -4.733)" fill="#ffca0f"/>
      <path id="Path_208" data-name="Path 208" d="M162.521,76.632C162.521,34.309,126.139,0,81.26,0,41.991,0,9.228,26.268,1.63,61.286A72.521,72.521,0,0,0,0,76.632" transform="translate(1002.89 86) rotate(90)" fill="#ffca0f"/>
      <ellipse id="Ellipse_15" data-name="Ellipse 15" cx="123.5" cy="117" rx="123.5" ry="117" transform="translate(1093.258 361.422)" fill="#fe7760"/>
      <ellipse id="Ellipse_13" data-name="Ellipse 13" cx="96.5" cy="92" rx="96.5" ry="92" transform="translate(1147.258 86)" fill="#fdb8b7"/>
      <rect id="Rectangle_225" data-name="Rectangle 225" width="226.963" height="145.663" rx="72.832" transform="translate(948.578 435.744) rotate(-90)" fill="#9ab7ff"/>
      <rect id="Rectangle_227" data-name="Rectangle 227" width="186.185" height="96.389" rx="48.195" transform="translate(1050.618 278.184) rotate(-90)" fill="#55aa79"/>
      <path id="Path_74" data-name="Path 74" d="M72.832,0a72.8,72.8,0,0,1,72.832,72.774c0,40.192-31.075,72.889-71.3,72.889S0,112.966,0,72.774A72.8,72.8,0,0,1,72.832,0Z" transform="translate(949.153 296.715)" fill="#ffca0f"/>
    </g>
    <g id="Group_324" data-name="Group 324">
      <g id="Rectangle_224" data-name="Rectangle 224" transform="translate(122 629)" fill="none" stroke="#55aa79" stroke-width="6">
        <rect width="117" height="107" rx="53.5" stroke="none"/>
        <rect x="3" y="3" width="111" height="101" rx="50.5" fill="none"/>
      </g>
    </g>
  </g>
</svg>
