<svg xmlns="http://www.w3.org/2000/svg" width="583" height="768" viewBox="0 0 583 768">
  <g id="Group_323" data-name="Group 323" transform="translate(-783)">
    <g id="Group_253" data-name="Group 253">
      <rect id="Rectangle_221" data-name="Rectangle 221" width="491" height="768" transform="translate(875)" fill="#13182b"/>
      <circle id="Ellipse_12" data-name="Ellipse 12" cx="46" cy="46" r="46" transform="translate(783 260)" fill="#fe7760"/>
      <path id="Path_65" data-name="Path 65" d="M88.195-26.559v92H0Z" transform="translate(809.559 440.378) rotate(-90)" fill="#fdb8b7"/>
      <rect id="Rectangle_226" data-name="Rectangle 226" width="153" height="135" rx="67.5" transform="translate(875 633)" fill="#55aa79"/>
      <path id="Path_67" data-name="Path 67" d="M135.072,182V0H0Z" transform="translate(1184 768) rotate(-90)" fill="#ffca0f"/>
      <path id="Exclusion_3" data-name="Exclusion 3" d="M228.207,130.37H201.46a180.47,180.47,0,0,0-4.119-39.746c-2.989-13.171-7.578-24.659-13.641-34.144a74.341,74.341,0,0,0-10.992-13.519,66.071,66.071,0,0,0-14.094-10.376,70.455,70.455,0,0,0-17.437-6.652,90.484,90.484,0,0,0-21.02-2.346c-.821,0-1.659.01-2.491.029-15.172.345-28.924,3.54-40.873,9.494a81.518,81.518,0,0,0-28.51,23.645,102.524,102.524,0,0,0-16.7,33.764,141.793,141.793,0,0,0-5.444,39.851H0A175.925,175.925,0,0,1,6.983,79.74C11.748,63.9,18.863,50.021,28.131,38.495a98.489,98.489,0,0,1,35.608-27.9A110.294,110.294,0,0,1,87.058,2.887,136.867,136.867,0,0,1,114.1,0c.53-.006,1.068-.009,1.6-.009,18.4,0,35.1,3.471,49.659,10.316a96.819,96.819,0,0,1,35.109,28.058c9.128,11.6,16.143,25.547,20.851,41.465a178.336,178.336,0,0,1,6.885,50.537Z" transform="translate(1103.207 440.369) rotate(180)" fill="#55aa79"/>
      <path id="Exclusion_4" data-name="Exclusion 4" d="M23.231,0H0A113.736,113.736,0,0,0,2.021,21.382,110.761,110.761,0,0,0,7.818,41.3,108.5,108.5,0,0,0,16.99,59.318a105.693,105.693,0,0,0,12.147,15.7A101.9,101.9,0,0,0,43.86,87.975a97.713,97.713,0,0,0,16.9,9.782,94.519,94.519,0,0,0,18.673,6.182,94.317,94.317,0,0,0,40.1,0A94.519,94.519,0,0,0,138.2,97.756a97.712,97.712,0,0,0,16.9-9.782A101.9,101.9,0,0,0,169.823,75.02a105.693,105.693,0,0,0,12.147-15.7A108.5,108.5,0,0,0,191.142,41.3a110.759,110.759,0,0,0,5.8-19.915A113.742,113.742,0,0,0,198.96,0H175.641a87.134,87.134,0,0,1-1.548,16.38,84.843,84.843,0,0,1-4.44,15.255,83.119,83.119,0,0,1-7.026,13.805,80.968,80.968,0,0,1-9.305,12.028,78.061,78.061,0,0,1-11.278,9.924A74.85,74.85,0,0,1,129.1,74.885a72.406,72.406,0,0,1-14.3,4.736,72.251,72.251,0,0,1-30.716,0,72.409,72.409,0,0,1-14.3-4.736,74.851,74.851,0,0,1-12.945-7.493,78.063,78.063,0,0,1-11.278-9.924A80.967,80.967,0,0,1,36.246,45.44,83.117,83.117,0,0,1,29.22,31.635a84.845,84.845,0,0,1-4.44-15.255A87.126,87.126,0,0,1,23.231,0Z" transform="translate(875 526.906)" fill="#fe7760"/>
      <path id="Path_66" data-name="Path 66" d="M192.55-26.559V172.4H0Z" transform="translate(901.559 632.928) rotate(-90)" fill="#9ab7ff"/>
      <path id="Path_20" data-name="Path 20" d="M292.8,407.062C292.8,330.812,227.256,269,146.4,269,75.653,269,16.626,316.325,2.936,379.414A130.656,130.656,0,0,0,0,407.062" transform="translate(1073.198 -68.587)" fill="#ffca0f"/>
      <circle id="Ellipse_14" data-name="Ellipse 14" cx="145.5" cy="145.5" r="145.5" transform="translate(1075 340)" fill="#ffca0f"/>
      <circle id="Ellipse_15" data-name="Ellipse 15" cx="145.5" cy="145.5" r="145.5" transform="translate(1075 340)" fill="#fe7760"/>
      <ellipse id="Ellipse_13" data-name="Ellipse 13" cx="103" cy="102" rx="103" ry="102" transform="translate(1160)" fill="#fdb8b7"/>
      <rect id="Rectangle_225" data-name="Rectangle 225" width="268" height="172" rx="81" transform="translate(902.321 413.869) rotate(-90)" fill="#9ab7ff"/>
      <rect id="Rectangle_227" data-name="Rectangle 227" width="230.869" height="93.743" rx="46.872" transform="translate(1066.5 230.869) rotate(-90)" fill="#55aa79"/>
      <path id="Path_74" data-name="Path 74" d="M86,0a85.966,85.966,0,0,1,86,85.932C172,133.391,135.306,172,87.809,172S0,133.391,0,85.932A85.966,85.966,0,0,1,86,0Z" transform="translate(903 249.638)" fill="#ffca0f"/>
      <path id="Path_76" data-name="Path 76" d="M101.086,14.143a3.35,3.35,0,0,1-4.738,0L93.665,11.46A49.125,49.125,0,0,1,79.182,46.337,49.127,49.127,0,0,1,44.215,60.821,49.348,49.348,0,0,1,.383,34.286a3.35,3.35,0,1,1,5.935-3.109,42.666,42.666,0,0,0,37.9,22.943,42.8,42.8,0,0,0,42.75-42.665l-2.688,2.688a3.35,3.35,0,1,1-4.738-4.738l8.255-8.255a3.346,3.346,0,0,1,5.112.073l8.182,8.181a3.35,3.35,0,0,1,0,4.738Z" transform="matrix(0.961, 0.276, -0.276, 0.961, 932.826, 62.701)" fill="#ffca0f"/>
    </g>
    <g id="Group_322" data-name="Group 322" transform="translate(1030 630)">
      <g id="Rectangle_224" data-name="Rectangle 224" fill="none" stroke="#55aa79" stroke-width="6">
        <rect width="154" height="137" rx="68.5" stroke="none"/>
        <rect x="3" y="3" width="148" height="131" rx="65.5" fill="none"/>
      </g>
    </g>
  </g>
</svg>
