<svg xmlns="http://www.w3.org/2000/svg" width="1088.257" height="407.036" viewBox="0 0 1088.257 407.036">
  <g id="Group_254" data-name="Group 254" transform="translate(-139 -3095.001)">
    <rect id="Rectangle_332" data-name="Rectangle 332" width="1088" height="406" transform="translate(139 3096)" fill="#fff" opacity="0"/>
    <path id="Exclusion_27" data-name="Exclusion 27" d="M10.08-.009H0A89.524,89.524,0,0,0,2.693,22.515a57.148,57.148,0,0,0,8.155,18.348A39.342,39.342,0,0,0,24.579,53.274,41.845,41.845,0,0,0,44,57.987c.2,0,.412,0,.616,0A39.682,39.682,0,0,0,63.766,53.4,38.827,38.827,0,0,0,77.3,40.92a58.256,58.256,0,0,0,8.04-18.446A90.775,90.775,0,0,0,88-.007H77.686c0,13.089-2.368,24.177-6.85,32.068a28.332,28.332,0,0,1-9.674,10.371,27.812,27.812,0,0,1-14.828,3.905c-.321,0-.636,0-.961-.012A33.614,33.614,0,0,1,29.612,42.2,32.6,32.6,0,0,1,18.619,31.941a46.922,46.922,0,0,1-6.44-14.654,68.786,68.786,0,0,1-2.1-17.3Z" transform="matrix(0.999, -0.052, 0.052, 0.999, 655.085, 3277.352)" fill="#fe7760"/>
    <path id="Path_100" data-name="Path 100" d="M0,269c0,61.243,58.172,110.891,129.93,110.891,62.789,0,115.175-38.011,127.325-88.684A95.385,95.385,0,0,0,259.861,269" transform="translate(577 3683.891) rotate(180)" fill="#9ab7ff"/>
    <ellipse id="Ellipse_25" data-name="Ellipse 25" cx="46.5" cy="47.5" rx="46.5" ry="47.5" transform="translate(1134 3096)" fill="#ffca0f"/>
    <circle id="Ellipse_46" data-name="Ellipse 46" cx="48.5" cy="48.5" r="48.5" transform="translate(139 3096)" fill="#9ab7ff"/>
    <rect id="Rectangle_309" data-name="Rectangle 309" width="224" height="92" rx="46" transform="translate(1135.257 3415.438) rotate(-90)" fill="#fdb8b7"/>
    <rect id="Rectangle_308" data-name="Rectangle 308" width="222.887" height="97" rx="48.5" transform="translate(139 3414.887) rotate(-90)" fill="#fe7760"/>
    <rect id="Rectangle_250" data-name="Rectangle 250" width="231.652" height="68.633" rx="34.316" transform="translate(743.347 3346.258)" fill="#55aa79"/>
    <path id="Path_157" data-name="Path 157" d="M43.518,0A43.5,43.5,0,0,1,87.037,43.484c0,24.015-18.568,43.553-42.6,43.553S0,67.5,0,43.484A43.5,43.5,0,0,1,43.518,0Z" transform="translate(1135.037 3415) rotate(90)" fill="#fdb8b7"/>
    <path id="Path_160" data-name="Path 160" d="M60,0a59.976,59.976,0,0,1,60,59.952C120,93.063,94.4,120,61.262,120S0,93.063,0,59.952A59.976,59.976,0,0,1,60,0Z" transform="translate(1064 3191) rotate(90)" fill="#fdb8b7"/>
    <path id="Path_106" data-name="Path 106" d="M176.84-26.559V213.332H0Z" transform="translate(958.16 3201.559)" fill="#9ab7ff"/>
    <path id="Path_118" data-name="Path 118" d="M204.513,108.451C203.137,51.736,157.083,3.81,101.213,2.48,52.328,1.317,12.4,35.547,4.075,82.249a103.015,103.015,0,0,0-1.53,20.517" transform="matrix(-0.695, 0.719, -0.719, -0.695, 924.08, 3195.529)" fill="#fdb8b7"/>
    <path id="Path_161" data-name="Path 161" d="M114.516-12.58c.006,8.742-2.451,28.647-6.649,37.035-9.459,18.9-28.759,28.919-50.89,28.908C29.432,53.348,7.83,37.3,2.484,12.938,1.055,6.749.519-8.958.516-12.638" transform="translate(931.362 3189.483) rotate(90)" fill="#9ab7ff"/>
    <path id="Path_159" data-name="Path 159" d="M134.127,146.286l-51.013-152L-11.873-1.849Z" transform="translate(809.546 3339.105) rotate(-45)" fill="#fe7760"/>
    <path id="Exclusion_11" data-name="Exclusion 11" d="M226.841,110.4,4.006,109.159a130.7,130.7,0,0,1,6.406-41.635,96.256,96.256,0,0,1,19.924-34.5,93.152,93.152,0,0,1,34.5-23.637,119.846,119.846,0,0,1,23.049-6.58A158.226,158.226,0,0,1,114.977.342c.5,0,1-.007,1.492-.007a147.446,147.446,0,0,1,26.762,2.341A114.342,114.342,0,0,1,166.07,9.343a93.139,93.139,0,0,1,34.345,24.184,99.948,99.948,0,0,1,19.965,35.1A131.722,131.722,0,0,1,226.841,110.4ZM121.559,20.016c-.834,0-1.653.008-2.5.024C103.76,20.329,89.9,23,77.851,27.968A79.236,79.236,0,0,0,32.275,75.9a99.534,99.534,0,0,0-5.488,33.275H203.527a125.886,125.886,0,0,0-4.154-33.185,81.591,81.591,0,0,0-13.753-28.509A66.119,66.119,0,0,0,174.539,36.2a67.447,67.447,0,0,0-14.208-8.664,80.561,80.561,0,0,0-17.576-5.555,109.351,109.351,0,0,0-21.187-1.961Z" transform="translate(932.6 3195.763) rotate(135)" fill="#ffca0f"/>
    <path id="Exclusion_13" data-name="Exclusion 13" d="M12.714,59.991H0a76.9,76.9,0,0,1,3.4-23.3A54.606,54.606,0,0,1,13.683,17.71,47.616,47.616,0,0,1,31,4.871,62.3,62.3,0,0,1,55.5-.005c.258,0,.52,0,.777,0A59.092,59.092,0,0,1,80.432,4.738,46.739,46.739,0,0,1,97.509,17.651a55.465,55.465,0,0,1,10.142,19.082A77.947,77.947,0,0,1,111,59.989H97.99c0-13.54-2.987-25.011-8.64-33.174a32.678,32.678,0,0,0-12.2-10.728,41.143,41.143,0,0,0-18.7-4.04c-.405,0-.8,0-1.213.013a49.829,49.829,0,0,0-19.881,4.262A39.111,39.111,0,0,0,23.485,26.939,44.732,44.732,0,0,0,15.362,42.1,59.1,59.1,0,0,0,12.714,59.99Z" transform="translate(376.354 3252.417) rotate(100)" fill="#fe7760"/>
    <path id="Exclusion_25" data-name="Exclusion 25" d="M10.08-.009H0A89.524,89.524,0,0,0,2.693,22.515a57.148,57.148,0,0,0,8.155,18.348A39.342,39.342,0,0,0,24.579,53.274,41.845,41.845,0,0,0,44,57.987c.2,0,.412,0,.616,0A39.682,39.682,0,0,0,63.766,53.4,38.827,38.827,0,0,0,77.3,40.92a58.256,58.256,0,0,0,8.04-18.446A90.775,90.775,0,0,0,88-.007H77.686c0,13.089-2.368,24.177-6.85,32.068a28.332,28.332,0,0,1-9.674,10.371,27.812,27.812,0,0,1-14.828,3.905c-.321,0-.636,0-.961-.012A33.614,33.614,0,0,1,29.612,42.2,32.6,32.6,0,0,1,18.619,31.941a46.922,46.922,0,0,1-6.44-14.654,68.786,68.786,0,0,1-2.1-17.3Z" transform="matrix(0, 1, -1, 0, 584.413, 3257.805)" fill="#ffca0f"/>
    <path id="Path_112" data-name="Path 112" d="M-1.28,92.273-.717-.366,63.7.758Z" transform="translate(1134.359 3478.735) rotate(-91)" fill="#fe7760"/>
    <rect id="Rectangle_242" data-name="Rectangle 242" width="230.869" height="86.741" rx="43.37" transform="translate(236.259 3326.869) rotate(-90)" fill="#ffca0f"/>
    <path id="Path_116" data-name="Path 116" d="M44,0A43.983,43.983,0,0,1,88,43.965C88,68.246,69.226,88,44.926,88S0,68.246,0,43.965A43.983,43.983,0,0,1,44,0Z" transform="translate(236 3326.564)" fill="#55aa79"/>
    <path id="Path_103" data-name="Path 103" d="M158.419,196.918V-2.067L-24.774,9.925Z" transform="translate(684.319 3253.42) rotate(-90)" fill="#9ab7ff"/>
    <path id="Path_109" data-name="Path 109" d="M250,372.824c0-57.256-57.181-108-126.217-108-60.406,0-109.588,39.866-121.276,87.239A86.78,86.78,0,0,0,0,372.824" transform="translate(955.824 3096) rotate(90)" fill="#55aa79"/>
    <rect id="Rectangle_333" data-name="Rectangle 333" width="168" height="161" rx="72" transform="translate(578.128 3330.001)" fill="#ffca0f"/>
  </g>
</svg>
