<svg xmlns="http://www.w3.org/2000/svg" width="156" height="92" viewBox="0 0 156 92">
  <path id="Exclusion_33" data-name="Exclusion 33" d="M156,87.889H137.716A120.875,120.875,0,0,0,134.8,60.806a77.754,77.754,0,0,0-9.5-23.864,49.5,49.5,0,0,0-17.239-17,47.158,47.158,0,0,0-11.88-4.781,57.928,57.928,0,0,0-14.245-1.7c-1.59,0-3.233.057-4.882.17A80.116,80.116,0,0,0,61.59,16.153a60.027,60.027,0,0,0-12.771,5.037,51.7,51.7,0,0,0-10.271,7.265,52.568,52.568,0,0,0-7.965,9.2,61.591,61.591,0,0,0-5.855,10.837,78.577,78.577,0,0,0-3.941,12.181,117.8,117.8,0,0,0-2.918,27.217H0A127.878,127.878,0,0,1,4.774,52.162a86.309,86.309,0,0,1,14.456-29.1A67.689,67.689,0,0,1,43.571,3.371,73.764,73.764,0,0,1,59.512-2.068,90.756,90.756,0,0,1,78-4.105c.364,0,.731-.006,1.093-.006A85.712,85.712,0,0,1,97.322-2.228a70.37,70.37,0,0,1,15.717,5.4,66.6,66.6,0,0,1,24,19.8,87.815,87.815,0,0,1,14.254,29.26A129.635,129.635,0,0,1,156,87.888Z" transform="translate(0 4.111)" fill="#9ab7ff"/>
</svg>
