<svg xmlns="http://www.w3.org/2000/svg" width="262" height="152" viewBox="0 0 262 152">
  <path id="Exclusion_14" data-name="Exclusion 14" d="M262,147.889H231.293a196.593,196.593,0,0,0-4.89-44.744c-3.538-15.09-8.906-28.355-15.957-39.428-7.735-12.147-17.476-21.6-28.953-28.08a79.958,79.958,0,0,0-19.953-7.9,98.818,98.818,0,0,0-23.925-2.8c-2.671,0-5.429.094-8.2.281a136.6,136.6,0,0,0-25.977,4.153A101.8,101.8,0,0,0,81.991,37.69a85.789,85.789,0,0,0-30.627,27.2,101.244,101.244,0,0,0-9.834,17.9,128.324,128.324,0,0,0-6.618,20.126,191.6,191.6,0,0,0-4.9,44.968H0c0-21.208,2.7-41.066,8.017-59.025C13.488,70.393,21.656,54.215,32.3,40.778A113.349,113.349,0,0,1,73.177,8.251,125.287,125.287,0,0,1,99.949-.736,154.84,154.84,0,0,1,131-4.1c.611-.007,1.228-.01,1.836-.01A146.243,146.243,0,0,1,163.451-1a119.515,119.515,0,0,1,26.4,8.915,111.472,111.472,0,0,1,40.308,32.712c10.479,13.519,18.533,29.783,23.939,48.342A210.915,210.915,0,0,1,262,147.888Z" transform="translate(0 4.111)" fill="#9ab7ff"/>
</svg>
