<svg xmlns="http://www.w3.org/2000/svg" width="114.878" height="86.598" viewBox="0 0 114.878 86.598">
  <path id="Path_248" data-name="Path 248" d="M101.086,14.143a3.35,3.35,0,0,1-4.738,0L93.665,11.46A49.125,49.125,0,0,1,79.182,46.337,49.127,49.127,0,0,1,44.215,60.821,49.348,49.348,0,0,1,.383,34.286a3.35,3.35,0,1,1,5.935-3.109,42.666,42.666,0,0,0,37.9,22.943,42.8,42.8,0,0,0,42.75-42.665l-2.688,2.688a3.35,3.35,0,1,1-4.738-4.738l8.255-8.255a3.346,3.346,0,0,1,5.112.073l8.182,8.181a3.35,3.35,0,0,1,0,4.738Z" transform="matrix(0.961, 0.276, -0.276, 0.961, 16.764, 0)" fill="#ffca0f"/>
</svg>
