<svg xmlns="http://www.w3.org/2000/svg" width="137.588" height="156.063" viewBox="0 0 137.588 156.063">
  <path id="Path_138" data-name="Path 138" d="M132.711,18.6a4.393,4.393,0,0,1-6.22,0l-3.523-3.529a64.677,64.677,0,0,1-19.014,45.875A64.435,64.435,0,0,1,58.048,80,64.771,64.771,0,0,1,.5,45.1,4.4,4.4,0,1,1,8.3,41.008,56,56,0,0,0,58.048,71.186a56.241,56.241,0,0,0,56.124-56.119L110.642,18.6a4.4,4.4,0,0,1-6.22-6.232L115.259,1.514a4.387,4.387,0,0,1,6.711.1l10.741,10.761a4.412,4.412,0,0,1,0,6.232Z" transform="translate(68.573) rotate(59)" fill="#current"/>
</svg>
