<svg xmlns="http://www.w3.org/2000/svg" width="46" height="78" viewBox="0 0 46 78">
  <path id="Path_138" data-name="Path 138" d="M77.25,10.7a2.579,2.579,0,0,1-3.621,0l-2.05-2.029A36.962,36.962,0,0,1,60.511,35.046,38.021,38.021,0,0,1,.293,25.931a2.521,2.521,0,0,1,1.08-3.42,2.574,2.574,0,0,1,3.456,1.069,32.651,32.651,0,0,0,28.96,17.353A32.54,32.54,0,0,0,66.458,8.664L64.4,10.7a2.579,2.579,0,0,1-3.621,0,2.515,2.515,0,0,1,0-3.583L67.091.87A2.574,2.574,0,0,1,71,.926L77.25,7.113a2.515,2.515,0,0,1,0,3.583Z" transform="translate(46) rotate(90)" fill="#ffca0f"/>
</svg>
