<svg xmlns="http://www.w3.org/2000/svg" width="97.002" height="73.69" viewBox="0 0 97.002 73.69">
  <path id="Path_141" data-name="Path 141" d="M1.514,26.553a2.8,2.8,0,0,0,3.81-1.208A35.887,35.887,0,0,1,37.255,5.729c19.838,0,35.981,16.357,36.02,36.478l-2.265-2.3a2.794,2.794,0,0,0-3.992,0,2.894,2.894,0,0,0,0,4.051l6.957,7.06a2.793,2.793,0,0,0,4.306-.065l6.893-6.994a2.894,2.894,0,0,0,0-4.051,2.794,2.794,0,0,0-3.992,0L78.92,42.2a42.314,42.314,0,0,0-12.2-29.818A41.093,41.093,0,0,0,37.254,0,41.506,41.506,0,0,0,.323,22.686a2.885,2.885,0,0,0,1.191,3.867Z" transform="matrix(0.961, -0.276, 0.276, 0.961, 0, 23.705)" fill="#9ab7ff"/>
</svg>
