<svg xmlns="http://www.w3.org/2000/svg" width="106" height="64" viewBox="0 0 106 64">
  <g id="return-of-investment" transform="translate(106 64) rotate(180)">
    <path id="Path_75" data-name="Path 75" d="M1.866,32.68a3.456,3.456,0,0,0,4.7-1.487A44.24,44.24,0,0,1,45.918,7.051c24.452,0,44.349,20.132,44.4,44.9l-2.792-2.829a3.447,3.447,0,0,0-4.92,0,3.558,3.558,0,0,0,0,4.986l8.575,8.689a3.445,3.445,0,0,0,5.307-.08l8.5-8.608a3.558,3.558,0,0,0,0-4.986,3.448,3.448,0,0,0-4.921,0L97.274,51.94a52.04,52.04,0,0,0-15.041-36.7A50.993,50.993,0,0,0,.4,27.922,3.549,3.549,0,0,0,1.866,32.68Z" transform="translate(0 0)" fill="#fe7760"/>
  </g>
</svg>
