<svg xmlns="http://www.w3.org/2000/svg" width="97" height="97" viewBox="0 0 97 97">
  <g id="Group_105" data-name="Group 105" transform="translate(-783 -1654)">
    <g id="binoculars" transform="translate(783 1654)">
      <path id="Path_126" data-name="Path 126" d="M95.063,54.348l-6.4-39.626A6.16,6.16,0,0,0,83.549,9.6V5.778A5.785,5.785,0,0,0,77.771,0H69.245a5.785,5.785,0,0,0-5.778,5.778V9.52h-1.33a6.066,6.066,0,0,0-6.059,6.059,7.578,7.578,0,1,1-15.156,0A6.066,6.066,0,0,0,34.863,9.52h-1.33V5.778A5.785,5.785,0,0,0,27.755,0H19.229a5.785,5.785,0,0,0-5.778,5.778V9.6a6.161,6.161,0,0,0-5.112,5.123l-6.4,39.626A151.75,151.75,0,0,0,0,78.481V88.569A8.44,8.44,0,0,0,8.431,97H30.6a8.44,8.44,0,0,0,8.431-8.431v-11.6a9.473,9.473,0,0,1,18.945,0v11.6A8.44,8.44,0,0,0,66.4,97H88.569A8.44,8.44,0,0,0,97,88.569V78.481A151.752,151.752,0,0,0,95.063,54.348Z" transform="translate(0 0)" fill="#9ab7ff"/>
    </g>
    <g id="binoculars-2" data-name="binoculars" transform="translate(783 1654)">
      <path id="Path_126-2" data-name="Path 126" d="M95.063,54.348l-6.4-39.626A6.16,6.16,0,0,0,83.549,9.6V5.778A5.785,5.785,0,0,0,77.771,0H69.245a5.785,5.785,0,0,0-5.778,5.778V9.52h-1.33a6.066,6.066,0,0,0-6.059,6.059,7.578,7.578,0,1,1-15.156,0A6.066,6.066,0,0,0,34.863,9.52h-1.33V5.778A5.785,5.785,0,0,0,27.755,0H19.229a5.785,5.785,0,0,0-5.778,5.778V9.6a6.161,6.161,0,0,0-5.112,5.123l-6.4,39.626A151.75,151.75,0,0,0,0,78.481V88.569A8.44,8.44,0,0,0,8.431,97H10.7a1.421,1.421,0,0,0,0-2.842H8.431a5.6,5.6,0,0,1-5.589-5.589V79.9H36.186v8.667A5.6,5.6,0,0,1,30.6,94.158H10.736a1.421,1.421,0,1,0,0,2.842H30.6a8.44,8.44,0,0,0,8.431-8.431v-11.6a9.473,9.473,0,0,1,18.945,0v11.6A8.44,8.44,0,0,0,66.4,97H88.569A8.44,8.44,0,0,0,97,88.569V78.481A151.752,151.752,0,0,0,95.063,54.348ZM93.546,65.03H80.612a5.69,5.69,0,0,1-5.684-5.684V36.459a5.69,5.69,0,0,1,5.684-5.684h7.763L92.258,54.8q.82,5.078,1.288,10.229ZM66.309,5.778a2.94,2.94,0,0,1,2.937-2.937h8.525a2.94,2.94,0,0,1,2.937,2.937V9.52h-14.4Zm-50.016,0a2.94,2.94,0,0,1,2.937-2.937h8.525a2.94,2.94,0,0,1,2.937,2.937V9.52h-14.4Zm72.276,88.38H66.4a5.6,5.6,0,0,1-5.589-5.589V79.9H89.422a1.421,1.421,0,0,0,0-2.842H60.814v-.091a12.314,12.314,0,0,0-24.629,0v.091H2.849q.044-4.59.374-9.188H16.388a8.535,8.535,0,0,0,8.525-8.525V37.07a1.421,1.421,0,0,0-2.842,0V59.346a5.69,5.69,0,0,1-5.684,5.684H3.454Q3.921,59.888,4.742,54.8L8.624,30.775h7.763a5.69,5.69,0,0,1,5.684,5.684v1.5a1.421,1.421,0,0,0,2.842,0v-1.5a8.535,8.535,0,0,0-8.525-8.525h-7.3l2.061-12.758a3.334,3.334,0,0,1,3.3-2.814H34.863a3.221,3.221,0,0,1,3.217,3.217,10.42,10.42,0,0,0,20.84,0,3.221,3.221,0,0,1,3.217-3.217H82.55a3.334,3.334,0,0,1,3.3,2.814l2.061,12.758h-7.3a8.535,8.535,0,0,0-8.525,8.525V59.346a8.535,8.535,0,0,0,8.525,8.525H93.777q.329,4.592.374,9.188H87.906a1.421,1.421,0,0,0,0,2.842h6.252v8.667a5.6,5.6,0,0,1-5.589,5.589Z" transform="translate(0 0)"/>
      <path id="Path_127" data-name="Path 127" d="M177.242,218.109a4.033,4.033,0,0,0-4.029,4.029,1.421,1.421,0,0,0,2.842,0,1.187,1.187,0,1,1,2.374,0,1.421,1.421,0,0,0,2.842,0A4.033,4.033,0,0,0,177.242,218.109Z" transform="translate(-140.397 -176.788)"/>
      <path id="Path_128" data-name="Path 128" d="M300.286,218.109a4.033,4.033,0,0,0-4.029,4.029,1.421,1.421,0,1,0,2.842,0,1.187,1.187,0,1,1,2.374,0,1.421,1.421,0,0,0,2.842,0A4.033,4.033,0,0,0,300.286,218.109Z" transform="translate(-240.13 -176.788)"/>
      <path id="Path_129" data-name="Path 129" d="M241.786,248.313a1.421,1.421,0,0,0-2,.138,2.245,2.245,0,0,1-3.39,0,1.421,1.421,0,1,0-2.142,1.867,5.087,5.087,0,0,0,7.675,0A1.421,1.421,0,0,0,241.786,248.313Z" transform="translate(-189.586 -200.985)"/>
    </g>
  </g>
</svg>
