<svg xmlns="http://www.w3.org/2000/svg" width="400" height="355.004" viewBox="0 0 400 355.004">
  <g id="Group_111" data-name="Group 111" transform="translate(-626.763 -3357.366)">
    <ellipse id="Ellipse_25" data-name="Ellipse 25" cx="70.309" cy="71.416" rx="70.309" ry="71.416" transform="translate(701.405 3483.902)" fill="#fe7760"/>
    <rect id="Rectangle_250" data-name="Rectangle 250" width="186" height="55.996" rx="27.998" transform="translate(797.949 3651.37)" fill="#fe7760"/>
    <path id="Path_118" data-name="Path 118" d="M144.67,73.166C144.669,32.758,112.284,0,72.335,0,37.379,0,8.214,25.08,1.451,58.514A74.076,74.076,0,0,0,0,73.166" transform="translate(904.646 3379.543) rotate(42)" fill="#fdb8b7"/>
    <path id="Exclusion_11" data-name="Exclusion 11" d="M174.6,88.132H154.137a108.368,108.368,0,0,0-3.152-26.867,67.979,67.979,0,0,0-10.437-23.081,52.07,52.07,0,0,0-8.41-9.139,50.709,50.709,0,0,0-10.783-7.014,58.426,58.426,0,0,0-13.341-4.5,77.977,77.977,0,0,0-16.082-1.586c-.628,0-1.27.006-1.906.019a81.358,81.358,0,0,0-31.272,6.418A61.291,61.291,0,0,0,36.941,38.37,66.488,66.488,0,0,0,24.164,61.193,85.463,85.463,0,0,0,20,88.131H0A106.063,106.063,0,0,1,5.343,53.907a78.752,78.752,0,0,1,16.18-27.88A74.757,74.757,0,0,1,48.766,7.168a92.369,92.369,0,0,1,17.842-5.21A118.016,118.016,0,0,1,87.3.006C87.706,0,88.118,0,88.524,0c14.075,0,26.858,2.346,37.994,6.973A73.252,73.252,0,0,1,153.38,25.94a79.877,79.877,0,0,1,15.953,28.029A107.49,107.49,0,0,1,174.6,88.131Z" transform="translate(897.01 3357.366) rotate(42)" fill="#ffca0f"/>
    <g id="Rectangle_246" data-name="Rectangle 246" transform="translate(626.763 3379.544)" fill="#55aa79" stroke="#55aa79" stroke-width="7">
      <rect width="174.236" height="63.663" rx="31.832" stroke="none"/>
      <rect x="3.5" y="3.5" width="167.236" height="56.663" rx="28.332" fill="none"/>
    </g>
    <rect id="Rectangle_243" data-name="Rectangle 243" width="121" height="122" rx="60.5" transform="translate(631 3590.37)" fill="#fdb8b7"/>
  </g>
</svg>
