<svg xmlns="http://www.w3.org/2000/svg" width="32" height="32" viewBox="0 0 32 32">
  <g id="Group_199" data-name="Group 199" transform="translate(32) rotate(90)">
    <g id="Path_85" data-name="Path 85" transform="translate(0 0)" fill="rgba(255,255,255,0)">
      <path d="M 16 31 C 11.9933500289917 31 8.226519584655762 29.43972969055176 5.393400192260742 26.60659980773926 C 2.560270071029663 23.77346992492676 1 20.00663948059082 1 16 C 1 11.9933500289917 2.560270071029663 8.226519584655762 5.393400192260742 5.393400192260742 C 8.226519584655762 2.560270071029663 11.9933500289917 1 16 1 C 20.00663948059082 1 23.77346992492676 2.560270071029663 26.60659980773926 5.393400192260742 C 29.43972969055176 8.226519584655762 31 11.9933500289917 31 16 C 31 20.00663948059082 29.43972969055176 23.77346992492676 26.60659980773926 26.60659980773926 C 23.77346992492676 29.43972969055176 20.00663948059082 31 16 31 Z" stroke="none"/>
      <path d="M 16 2 C 12.26045989990234 2 8.744749069213867 3.456249237060547 6.100500106811523 6.100500106811523 C 3.456249237060547 8.744749069213867 2 12.26045989990234 2 16 C 2 19.73952865600586 3.456249237060547 23.25524139404297 6.100500106811523 25.89949035644531 C 8.744749069213867 28.54375076293945 12.26045989990234 30 16 30 C 19.73952865600586 30 23.25524139404297 28.54375076293945 25.89949035644531 25.89949035644531 C 28.54375076293945 23.25524139404297 30 19.73952865600586 30 16 C 30 12.26045989990234 28.54375076293945 8.744749069213867 25.89949035644531 6.100500106811523 C 23.25524139404297 3.456249237060547 19.73952865600586 2 16 2 M 16 0 C 24.83654975891113 0 32 7.163440704345703 32 16 C 32 24.83654975891113 24.83654975891113 32 16 32 C 7.163440704345703 32 0 24.83654975891113 0 16 C 0 7.163440704345703 7.163440704345703 0 16 0 Z" stroke="none" fill="#fdb8b7"/>
    </g>
    <g id="Icon_feather-arrow-down" data-name="Icon feather-arrow-down" transform="translate(15.646 19.826) rotate(-90)">
      <path id="Path_43" data-name="Path 43" d="M8,0,4,4,0,0" transform="translate(0 0)" fill="none" stroke="#fdb8b7" stroke-linecap="round" stroke-linejoin="round" stroke-width="2"/>
    </g>
  </g>
</svg>
