<svg xmlns="http://www.w3.org/2000/svg" width="20.828" height="20.828" viewBox="0 0 20.828 20.828">
  <g id="Icon_feather-eye-off" data-name="Icon feather-eye-off" transform="translate(-0.086 -0.086)" opacity="0">
    <path id="Path_193" data-name="Path 193" d="M15.36,17.326A8.276,8.276,0,0,1,10.5,19c-5.727,0-9-6.5-9-6.5A15.019,15.019,0,0,1,5.64,7.674M8.782,6.195A7.512,7.512,0,0,1,10.5,6c5.727,0,9,6.5,9,6.5a15.026,15.026,0,0,1-1.767,2.592m-5.5-.869a2.461,2.461,0,0,1-4.174-1.059,2.427,2.427,0,0,1,.7-2.386" transform="translate(-0.29 -2.07)" fill="none" stroke="#b8c3de" stroke-linecap="round" stroke-linejoin="round" stroke-width="2"/>
    <path id="Path_194" data-name="Path 194" d="M1.5,1.5l18,18" fill="none" stroke="#b8c3de" stroke-linecap="round" stroke-linejoin="round" stroke-width="2"/>
  </g>
</svg>
