<svg id="Group_128" data-name="Group 128" xmlns="http://www.w3.org/2000/svg" width="37.999" height="42" viewBox="0 0 37.999 42">
  <path id="Exclusion_23" data-name="Exclusion 23" d="M19,42A18.984,18.984,0,0,1,0,23V19a19,19,0,0,1,36.506-7.4A18.882,18.882,0,0,1,38,19v4A18.983,18.983,0,0,1,19,42ZM14,18.867v3.258h2.968V30h3.653V22.125h2.723l.518-3.258H20.621V16.753c0-.657.247-1.76,1.9-1.76H24V12.22A18.571,18.571,0,0,0,21.383,12a4.043,4.043,0,0,0-4.415,4.385v2.482Z" transform="translate(0)" fill="#55aa79"/>
</svg>
