<svg id="Group_127" data-name="Group 127" xmlns="http://www.w3.org/2000/svg" width="42" height="42" viewBox="0 0 42 42">
  <path id="Exclusion_22" data-name="Exclusion 22" d="M21,42A21.006,21.006,0,0,1,12.825,1.65a21.006,21.006,0,0,1,16.35,38.7A20.882,20.882,0,0,1,21,42Zm-6.5-28.932A2.439,2.439,0,0,0,12.069,15.5V28.5a2.438,2.438,0,0,0,2.436,2.435H27.5A2.438,2.438,0,0,0,29.933,28.5V15.5A2.439,2.439,0,0,0,27.5,13.068ZM21,27.685A5.683,5.683,0,1,1,26.684,22,5.689,5.689,0,0,1,21,27.685Zm0-9.5A3.815,3.815,0,1,0,24.815,22,3.818,3.818,0,0,0,21,18.187Zm5.683-.246a1.624,1.624,0,1,1,1.625-1.622A1.624,1.624,0,0,1,26.684,17.94Z" fill="#fe7760"/>
</svg>
