<svg xmlns="http://www.w3.org/2000/svg" width="42" height="27" viewBox="0 0 42 27">
  <g id="Group_91" data-name="Group 91" transform="translate(-966 -616)">
    <path id="Path_20" data-name="Path 20" d="M42.208,299.017s.826-27.115-21-27-21,27-21,27Z" transform="translate(965.788 343.982)" fill="#ffca0f"/>
    <path id="Icon_awesome-linkedin-in" data-name="Icon awesome-linkedin-in" d="M3.581,16H.264V5.318H3.581ZM1.921,3.861A1.93,1.93,0,1,1,3.842,1.922,1.937,1.937,0,0,1,1.921,3.861ZM16,16h-3.31V10.8c0-1.239-.025-2.829-1.725-2.829-1.725,0-1.989,1.346-1.989,2.739V16H5.659V5.318H8.841V6.775h.046A3.486,3.486,0,0,1,12.026,5.05C15.383,5.05,16,7.261,16,10.132V16Z" transform="translate(980 622.999)"/>
  </g>
</svg>
