<svg id="Group_129" data-name="Group 129" xmlns="http://www.w3.org/2000/svg" width="43.106" height="33" viewBox="0 0 43.106 33">
  <path id="Exclusion_24" data-name="Exclusion 24" d="M42.549,33H.558l0-.008A48.35,48.35,0,0,1,.05,23.4,37.347,37.347,0,0,1,1.4,14.769a22.323,22.323,0,0,1,4.179-8.19C9.225,2.214,14.6,0,21.553,0S33.882,2.214,37.531,6.579a22.323,22.323,0,0,1,4.178,8.19A37.344,37.344,0,0,1,43.057,23.4a48.557,48.557,0,0,1-.508,9.6ZM25.515,16.971c1.724,0,1.724,1.635,1.724,2.829V25h3.31l0-5.868c0-2.64-.481-5.082-3.974-5.082a3.5,3.5,0,0,0-3.138,1.725h-.047V14.317H20.212V25h3.314V19.711C23.526,18.356,23.763,16.971,25.515,16.971Zm-10.7-2.654V25h3.316V14.317ZM16.475,9A1.93,1.93,0,1,0,18.4,10.921,1.923,1.923,0,0,0,16.475,9Z" fill="#9ab7ff"/>
</svg>
