<svg id="Component_10_31" data-name="Component 10 – 31" xmlns="http://www.w3.org/2000/svg" width="63" height="52" viewBox="0 0 63 52">
  <g id="Group_58" data-name="Group 58">
    <g id="Rectangle_222" data-name="Rectangle 222" fill="rgba(19,24,43,0)" stroke="#ffca10" stroke-width="4">
      <rect width="63" height="52" rx="26" stroke="none"/>
      <rect x="2" y="2" width="59" height="48" rx="24" fill="none"/>
    </g>
  </g>
  <g id="Group_93" data-name="Group 93" transform="translate(2 3.039)">
    <rect id="Rectangle_222-2" data-name="Rectangle 222" width="61" height="47" rx="23.5" transform="translate(0 -0.039)" fill="#ffca10"/>
  </g>
  <g id="user" transform="translate(20 15)">
    <path id="Union_3" data-name="Union 3" d="M5.671,11.349h0A5.674,5.674,0,0,1,5.668,0h.005a5.674,5.674,0,0,1,0,11.349h0Z" transform="translate(5.493)" fill="#13182b" stroke="#13182b" stroke-width="2"/>
    <path id="Union_1" data-name="Union 1" d="M11.164,9.663h-.008A12.493,12.493,0,0,1,.336,3.356L0,2.764l.451-.511A6.682,6.682,0,0,1,5.45,0H16.876a6.686,6.686,0,0,1,5,2.252l.451.511-.337.593A12.491,12.491,0,0,1,11.171,9.663h-.008Z" transform="translate(0 14.221)" fill="#13182b" stroke="#13182b" stroke-width="2"/>
  </g>
</svg>
