<svg id="Group_166" data-name="Group 166" xmlns="http://www.w3.org/2000/svg" width="50" height="34" viewBox="0 0 50 34">
  <path id="Path_179" data-name="Path 179" d="M49.9,306.017s3.735-34-24.839-34-24.84,34-24.84,34Z" transform="translate(-0.056 -272.018)" fill="#ffca0f"/>
  <g id="Icon_ionic-ios-mail" data-name="Icon ionic-ios-mail" transform="translate(14.398 9.533)">
    <path id="Path_177" data-name="Path 177" d="M24.407,10.346,18.922,16.1a.1.1,0,0,0,0,.147l3.838,4.211a.7.7,0,0,1,0,.966.651.651,0,0,1-.938,0L18,17.229a.1.1,0,0,0-.148,0l-.933.977a4.046,4.046,0,0,1-2.926,1.271,4.128,4.128,0,0,1-2.987-1.307l-.9-.94a.1.1,0,0,0-.148,0L6.138,21.424a.651.651,0,0,1-.938,0,.7.7,0,0,1,0-.966l3.838-4.211a.114.114,0,0,0,0-.147l-5.49-5.754a.1.1,0,0,0-.173.074V21.933a1.661,1.661,0,0,0,1.631,1.68H22.949a1.661,1.661,0,0,0,1.631-1.68V10.42A.1.1,0,0,0,24.407,10.346Z" transform="translate(-3.375 -8.467)" fill="#13182b"/>
    <path id="Path_178" data-name="Path 178" d="M14.184,17.625a2.7,2.7,0,0,0,1.988-.873l7.976-8.5a1.553,1.553,0,0,0-1.007-.373H5.232a1.543,1.543,0,0,0-1.007.373l7.976,8.5A2.7,2.7,0,0,0,14.184,17.625Z" transform="translate(-3.581 -7.875)" fill="#13182b"/>
  </g>
</svg>
