<svg id="verticalContainerlessSvgTemplate" xmlns="http://www.w3.org/2000/svg" width="166.926" height="34.401" viewBox="0 0 166.926 34.401">
  <g id="Group_57" data-name="Group 57">
    <g id="Group_55" data-name="Group 55" transform="translate(27.662 10.32)">
      <g id="line1">
        <path id="Path_48" data-name="Path 48" d="M9.219,32.05V30.32a2.668,2.668,0,0,0-2.653-2.654H2.654A2.668,2.668,0,0,0,0,30.32v2.5a2.668,2.668,0,0,0,2.083,2.595l3.539.806a.491.491,0,0,1,.412.511v1.316a.524.524,0,0,1-.531.511H3.716a.524.524,0,0,1-.531-.511v-1H0v1.73a2.668,2.668,0,0,0,2.654,2.653H6.566a2.668,2.668,0,0,0,2.653-2.653v-2.5a2.667,2.667,0,0,0-2.083-2.594L3.6,32.876a.509.509,0,0,1-.412-.511V31.047a.525.525,0,0,1,.531-.511H5.5a.525.525,0,0,1,.531.511v1Z" transform="translate(0 -27.666)" fill="#13182b"/>
        <path id="Path_49" data-name="Path 49" d="M7.837,27.666v2.851h2.851v10.91h3.184V30.517h2.87V27.666Z" transform="translate(3.077 -27.666)" fill="#13182b"/>
        <path id="Path_50" data-name="Path 50" d="M21.8,38.556H18.634l-.511,2.87H14.742l2.6-12.325-.728-1.436H22.8l2.87,13.761H22.311Zm-.511-2.849-1.061-6.036-1.082,6.036Z" transform="translate(5.788 -27.666)" fill="#13182b"/>
        <path id="Path_51" data-name="Path 51" d="M33.452,34.232V30.32A2.668,2.668,0,0,0,30.8,27.666H23.525l.707,1.436V41.427h3.185V37.417h1.691l1.16,4.009h3.184l-1.337-4.6A3.218,3.218,0,0,0,33.452,34.232Zm-6.034-3.7h2.319a.53.53,0,0,1,.532.531v2.95a.53.53,0,0,1-.532.531H27.417Z" transform="translate(9.237 -27.666)" fill="#13182b"/>
        <path id="Path_52" data-name="Path 52" d="M31.87,27.666v2.851h2.851v10.91h3.185V30.517h2.869V27.666Z" transform="translate(12.514 -27.666)" fill="#13182b"/>
        <path id="Path_53" data-name="Path 53" d="M46.526,27.666v10.89H44.207a.525.525,0,0,1-.532-.511V27.666H39.763l.728,1.436v9.672a2.655,2.655,0,0,0,2.653,2.653h6.566V27.666Z" transform="translate(15.613 -27.666)" fill="#13182b"/>
        <path id="Path_54" data-name="Path 54" d="M55.536,27.666H48.264l.727,1.436V41.427h3.165V37.417h2.869a3.18,3.18,0,0,0,3.165-3.185V30.32A2.656,2.656,0,0,0,55.536,27.666Zm-.511,6.35a.529.529,0,0,1-.531.531H52.156V30.536h2.338a.529.529,0,0,1,.531.531Z" transform="translate(18.951 -27.666)" fill="#13182b"/>
        <path id="Path_55" data-name="Path 55" d="M60.36,27.666H56.468l.727,1.436V41.427H60.36Z" transform="translate(22.172 -27.666)" fill="#13182b"/>
        <path id="Path_56" data-name="Path 56" d="M67.76,27.666v6.881L64.4,27.666H60.762l.727,1.436V41.427h3.165v-6.88l3.4,6.88h2.89V27.666Z" transform="translate(23.858 -27.666)" fill="#13182b"/>
        <path id="Path_57" data-name="Path 57" d="M72.541,41.427H77.18l2.95-13.761H76.748L74.841,38.813,72.954,27.666H69.573Z" transform="translate(27.317 -27.666)" fill="#13182b"/>
        <path id="Path_58" data-name="Path 58" d="M81.979,35.981h2.87l1.592-2.87H81.979V30.536h3.912l1.592-2.87h-9.4l.727,1.436V41.427h7.077l1.592-2.87h-5.5Z" transform="translate(30.66 -27.666)" fill="#13182b"/>
        <path id="Path_59" data-name="Path 59" d="M94.988,32.05V30.32a2.668,2.668,0,0,0-2.654-2.654H88.422a2.668,2.668,0,0,0-2.653,2.654v2.5a2.668,2.668,0,0,0,2.083,2.595l3.539.806a.492.492,0,0,1,.412.511v1.316a.524.524,0,0,1-.531.511h-1.79a.525.525,0,0,1-.531-.511v-1H85.769v1.73a2.668,2.668,0,0,0,2.653,2.653h3.912a2.668,2.668,0,0,0,2.654-2.653v-2.5A2.667,2.667,0,0,0,92.9,33.682l-3.539-.806a.509.509,0,0,1-.414-.511V31.047a.526.526,0,0,1,.531-.511h1.79a.525.525,0,0,1,.531.511v1Z" transform="translate(33.677 -27.666)" fill="#13182b"/>
        <path id="Path_60" data-name="Path 60" d="M93.606,27.666v2.851h2.849v10.91H99.64V30.517h2.87V27.666Z" transform="translate(36.754 -27.666)" fill="#13182b"/>
      </g>
    </g>
    <g id="logomark">
      <g id="Group_56" data-name="Group 56">
        <path id="Path_61" data-name="Path 61" d="M41.28,3.214,53.831,24.236v-.043l1.6,2.849h3.413s-6.382-11.237-6.561-11.537l-2.262-3.812L47.36,7.2,47.2,6.928c-.089-.15-.306-.366-.253-.554a.434.434,0,0,1,.3-.284.681.681,0,0,1,.118-.035H55.03l1.455-2.518L41.932,3.211l14.575-.375.387-.01c.141,0,.368-.05.454.1a.36.36,0,0,1,.025.192.736.736,0,0,1-.042.227,2.005,2.005,0,0,1-.171.336L53.826,9.673,55.5,12.744,62.924.543,55.915,13.452,57.784,16.8l7.79-13.563L63.22,0l-.032.058H43.613Z" transform="translate(-41.259)" fill="#13182b"/>
        <path id="Path_62" data-name="Path 62" d="M49.083,25.24a.422.422,0,0,1-.159-.049.478.478,0,0,1-.244-.337.8.8,0,0,1,.131-.369c.121-.252,3.525-6.139,3.525-6.139l-1.667-2.886L42.955,28.33H62.562l2.369-3.386H64.82l-.834.015-1.493.026-1.965.036-10.942.2A3.694,3.694,0,0,1,49.083,25.24Z" transform="translate(-40.601 6.071)" fill="#13182b"/>
        <path id="Path_63" data-name="Path 63" d="M51.207,7.919,49.493,4.935h-3.4l.031.054,2.455,4.271c.345.6,9.045,15.742,9.109,15.851.1.18.221.316.153.535-.084.27-.4.276-.638.276h-7.3l-1.469,2.692,15.248.33Z" transform="translate(-39.369 1.938)" fill="#13182b"/>
        <path id="Path_64" data-name="Path 64" d="M50.917,15.806l.007-.011-1.869-3.38-7.79,13.592,2.354,3.269Z" transform="translate(-41.265 4.875)" fill="#13182b"/>
      </g>
    </g>
  </g>
</svg>
