<svg xmlns="http://www.w3.org/2000/svg" width="42" height="42" viewBox="0 0 42 42">
  <g id="Group_87" data-name="Group 87" transform="translate(-1056 -657)">
    <circle id="Ellipse_32" data-name="Ellipse 32" cx="21" cy="21" r="21" transform="translate(1056 657)" fill="#fe7760"/>
    <path id="Icon_simple-messenger" data-name="Icon simple-messenger" d="M0,9.7A9.65,9.65,0,0,1,10,0,9.65,9.65,0,0,1,20,9.7a9.65,9.65,0,0,1-10,9.7,10.913,10.913,0,0,1-2.892-.383.8.8,0,0,0-.533.042l-1.992.875a.8.8,0,0,1-1.125-.708L3.4,17.441a.808.808,0,0,0-.267-.567A9.491,9.491,0,0,1,0,9.7ZM6.932,7.875,4,12.541a.47.47,0,0,0,.683.625l3.158-2.392a.588.588,0,0,1,.725,0l2.333,1.75a1.5,1.5,0,0,0,2.167-.4L16,7.458a.47.47,0,0,0-.683-.625L12.157,9.225a.576.576,0,0,1-.717,0L9.107,7.475a1.5,1.5,0,0,0-2.175.4Z" transform="translate(1067.001 667.999)" fill="#13182b"/>
  </g>
</svg>
