<svg id="Group_160" data-name="Group 160" xmlns="http://www.w3.org/2000/svg" width="50" height="50" viewBox="0 0 50 50">
  <rect id="Rectangle_319" data-name="Rectangle 319" width="50" height="50" rx="25" transform="translate(50) rotate(90)" fill="#fdb8b7"/>
  <path id="Icon_awesome-phone-alt" data-name="Icon awesome-phone-alt" d="M19.43,14.133l-4.375-1.875a.938.938,0,0,0-1.094.27l-1.938,2.367A14.479,14.479,0,0,1,5.1,7.973L7.469,6.036a.935.935,0,0,0,.27-1.094L5.863.567A.944.944,0,0,0,4.789.024L.727.962A.938.938,0,0,0,0,1.875,18.123,18.123,0,0,0,18.125,20a.938.938,0,0,0,.914-.727l.938-4.063A.949.949,0,0,0,19.43,14.133Z" transform="translate(15 14.683)" fill="#13182b"/>
</svg>
