<svg xmlns="http://www.w3.org/2000/svg" width="38" height="38" viewBox="0 0 38 38">
  <g id="Group_140" data-name="Group 140" transform="translate(38) rotate(90)">
    <g id="Path_85" data-name="Path 85" transform="translate(0 0)" fill="rgba(255,255,255,0)">
      <path d="M 19 37 C 14.19202995300293 37 9.671830177307129 35.12767028808594 6.272079944610596 31.72792053222656 C 2.872329950332642 28.32817077636719 1 23.80797004699707 1 19 C 1 14.19202995300293 2.872329950332642 9.671830177307129 6.272079944610596 6.272079944610596 C 9.671830177307129 2.872329950332642 14.19202995300293 1 19 1 C 23.80797004699707 1 28.32817077636719 2.872329950332642 31.72792053222656 6.272079944610596 C 35.12767028808594 9.671830177307129 37 14.19202995300293 37 19 C 37 23.80797004699707 35.12767028808594 28.32817077636719 31.72792053222656 31.72792053222656 C 28.32817077636719 35.12767028808594 23.80797004699707 37 19 37 Z" stroke="none"/>
      <path d="M 19 2 C 14.45914077758789 2 10.19005966186523 3.768310546875 6.979179382324219 6.979179382324219 C 3.768310546875 10.19005966186523 2 14.45914077758789 2 19 C 2 23.54085922241211 3.768310546875 27.80994033813477 6.979179382324219 31.02082061767578 C 10.19005966186523 34.231689453125 14.45914077758789 36 19 36 C 23.54085922241211 36 27.80994033813477 34.231689453125 31.02082061767578 31.02082061767578 C 34.231689453125 27.80994033813477 36 23.54085922241211 36 19 C 36 14.45914077758789 34.231689453125 10.19005966186523 31.02082061767578 6.979179382324219 C 27.80994033813477 3.768310546875 23.54085922241211 2 19 2 M 19 0 C 29.49341011047363 0 38 8.506589889526367 38 19 C 38 29.49341011047363 29.49341011047363 38 19 38 C 8.506589889526367 38 0 29.49341011047363 0 19 C 0 8.506589889526367 8.506589889526367 0 19 0 Z" stroke="none" fill="#fdb8b7"/>
    </g>
    <g id="Icon_feather-arrow-down" data-name="Icon feather-arrow-down" transform="translate(14.999 12.797)">
      <path id="Path_42" data-name="Path 42" d="M0,0V12" transform="translate(4 0)" fill="none" stroke="#fdb8b7" stroke-linecap="round" stroke-linejoin="round" stroke-width="2"/>
      <path id="Path_43" data-name="Path 43" d="M0,0,4,3.013,8,0" transform="translate(0 8.987)" fill="none" stroke="#fdb8b7" stroke-linecap="round" stroke-linejoin="round" stroke-width="2"/>
    </g>
  </g>
</svg>
