<svg xmlns="http://www.w3.org/2000/svg" width="34" height="36" viewBox="0 0 34 36">
  <g id="discount" transform="translate(-10.359 0.002)">
    <g id="Group_201" data-name="Group 201" transform="translate(10.359 -0.002)">
      <g id="Group_200" data-name="Group 200" transform="translate(0 0)">
        <path id="Path_195" data-name="Path 195" d="M42.72,18.464a1.07,1.07,0,0,1,0-.933l1.322-2.747a3.149,3.149,0,0,0-1.327-4.15L40.056,9.2a1.054,1.054,0,0,1-.54-.754L39,5.436a3.083,3.083,0,0,0-3.475-2.565l-2.98.428a1.028,1.028,0,0,1-.873-.288L29.507.886a3.041,3.041,0,0,0-4.3,0L23.049,3.012a1.028,1.028,0,0,1-.873.288L19.2,2.872a3.082,3.082,0,0,0-3.475,2.565L15.2,8.448a1.054,1.054,0,0,1-.539.754L12,10.635a3.15,3.15,0,0,0-1.327,4.15L12,17.532a1.07,1.07,0,0,1,0,.933l-1.322,2.747A3.149,3.149,0,0,0,12,25.361l2.658,1.433a1.054,1.054,0,0,1,.54.754l.52,3.011A3.071,3.071,0,0,0,19.2,33.125l2.98-.428a1.028,1.028,0,0,1,.873.288l2.163,2.126a3.041,3.041,0,0,0,4.295,0l2.163-2.126a1.029,1.029,0,0,1,.873-.288l2.98.428A3.082,3.082,0,0,0,39,30.56l.52-3.011a1.054,1.054,0,0,1,.539-.754l2.658-1.433a3.15,3.15,0,0,0,1.327-4.15Z" transform="translate(-10.359 0.002)" fill="#fe7760"/>
      </g>
    </g>
  </g>
</svg>
