<svg xmlns="http://www.w3.org/2000/svg" width="42" height="42" viewBox="0 0 42 42">
  <g id="Group_92" data-name="Group 92" transform="translate(-894 -608)">
    <circle id="Ellipse_31" data-name="Ellipse 31" cx="21" cy="21" r="21" transform="translate(894 608)" fill="#fdb8b7"/>
    <path id="Icon_awesome-share-alt" data-name="Icon awesome-share-alt" d="M12.571,11.875a3.334,3.334,0,0,0-2.135.775l-3.66-2.377a3.72,3.72,0,0,0,0-1.547l3.66-2.377a3.334,3.334,0,0,0,2.135.775A3.5,3.5,0,0,0,16,3.562,3.5,3.5,0,0,0,12.571,0,3.5,3.5,0,0,0,9.143,3.562a3.708,3.708,0,0,0,.081.773L5.564,6.713a3.334,3.334,0,0,0-2.135-.775A3.5,3.5,0,0,0,0,9.5a3.5,3.5,0,0,0,3.429,3.562,3.334,3.334,0,0,0,2.135-.775l3.66,2.377a3.708,3.708,0,0,0-.081.773A3.5,3.5,0,0,0,12.571,19a3.565,3.565,0,0,0,0-7.125Z" transform="translate(907 620)"/>
  </g>
</svg>
