<svg id="Group_126" data-name="Group 126" xmlns="http://www.w3.org/2000/svg" width="42" height="40" viewBox="0 0 42 40">
  <path id="Exclusion_21" data-name="Exclusion 21" d="M42,40H0L42,0V40ZM27.847,23.1a4.733,4.733,0,0,0-3.056,1.149,4.678,4.678,0,0,0-1.613,3.1c-.011.265-.009.552.006.931a4.712,4.712,0,0,0,2.282,3.571,4.575,4.575,0,0,0,2.319.65c.077,0,.156,0,.233-.007a4.644,4.644,0,0,0,3.7-2.007,4.806,4.806,0,0,0,.844-2.464c.012-1.135.011-2.293.011-3.413,0-.677,0-1.373,0-2.058a7.883,7.883,0,0,0,1.013.581,6.641,6.641,0,0,0,2.626.607v-2.52a4.389,4.389,0,0,1-2.651-1.12A3.855,3.855,0,0,1,32.465,17.5c-.323,0-.645,0-.968,0h-.009c-.48,0-.977,0-1.469.009-.012,1.571-.011,3.168-.011,4.713,0,.929,0,1.889,0,2.834,0,.295,0,.589,0,.883,0,.808,0,1.644-.043,2.469a1.36,1.36,0,0,1-.238.632l-.018.032a2.1,2.1,0,0,1-1.732,1.006c-.052,0-.106.007-.158.007a2.142,2.142,0,0,1-2.031-1.8c0-.052,0-.1,0-.156a2.027,2.027,0,0,1,.092-.85,2.169,2.169,0,0,1,.851-1.094,2.041,2.041,0,0,1,1.166-.345,2.341,2.341,0,0,1,.723.114c0-.394.007-.794.013-1.181v-.005c.009-.521.018-1.06.011-1.59A4.263,4.263,0,0,0,27.847,23.1Z" transform="translate(0 0)" fill="#ffca0f"/>
</svg>
