<svg xmlns="http://www.w3.org/2000/svg" width="19.5" height="22.5" viewBox="0 0 19.5 22.5">
  <path id="Icon_metro-attachment" data-name="Icon metro-attachment" d="M16.975,8.954,15.6,7.56,8.71,14.537a2.987,2.987,0,0,0,0,4.186,2.9,2.9,0,0,0,4.132,0l8.265-8.373a4.977,4.977,0,0,0,0-6.977,4.825,4.825,0,0,0-6.887,0L5.543,12.164l-.019.018a6.943,6.943,0,0,0,0,9.73,6.731,6.731,0,0,0,9.606,0l.017-.019h0l5.923-6L19.694,14.5l-5.923,6-.018.018a4.806,4.806,0,0,1-6.851,0,4.957,4.957,0,0,1,0-6.939l.019-.018h0L15.6,4.768a2.9,2.9,0,0,1,4.133,0,2.991,2.991,0,0,1,0,4.186l-8.265,8.372a.966.966,0,0,1-1.378,0,1,1,0,0,1,0-1.395l6.888-6.978Z" transform="translate(-3.285 -1.678)" fill="#fdb8b7" stroke="#fdb8b7" stroke-linecap="round" stroke-linejoin="round" stroke-width="0.5"/>
</svg>
