<svg xmlns="http://www.w3.org/2000/svg" width="24.771" height="25.884" viewBox="0 0 24.771 25.884">
  <g id="user" transform="translate(1.222 1)">
    <path id="Union_3" data-name="Union 3" d="M5.671,11.349h0A5.674,5.674,0,0,1,5.668,0h.005a5.674,5.674,0,0,1,0,11.349h0Z" transform="translate(5.493)" fill="#current" stroke="#current" stroke-width="2"/>
    <path id="Union_1" data-name="Union 1" d="M11.164,9.663h-.008A12.493,12.493,0,0,1,.336,3.356L0,2.764l.451-.511A6.682,6.682,0,0,1,5.45,0H16.876a6.686,6.686,0,0,1,5,2.252l.451.511-.337.593A12.491,12.491,0,0,1,11.171,9.663h-.008Z" transform="translate(0 14.221)" fill="#current" stroke="#current" stroke-width="2"/>
  </g>
</svg>
